PathFileType	4	(X/Y/Z)	TVC_12_BWA1_walk_RCNL2025.trc
DataRate	CameraRate	NumFrames	NumMarkers	Units	OrigDataRate	OrigDataStartFrame	OrigNumFrames
100	100	9	27	mm	100	235	468
Frame#	Time	R_Shoulder			L_Shoulder			C7			J_Notch			R_Elbow			L_Elbow			R_Wrist			L_Wrist			R_Asis			L_Asis			R_Psis			L_Psis			Sacral			Thoracic			Sternum			R_Thigh_Lateral			R_Knee_Lateral			R_Shank_Lateral			R_Ankle_Lateral			R_Heel			R_Toe			L_Thigh_Lateral			L_Knee_Lateral			L_Shank_Lateral			L_Ankle_Lateral			L_Heel			L_Toe		
		X1	Y1	Z1	X2	Y2	Z2	X3	Y3	Z3	X4	Y4	Z4	X5	Y5	Z5	X6	Y6	Z6	X7	Y7	Z7	X8	Y8	Z8	X9	Y9	Z9	X10	Y10	Z10	X11	Y11	Z11	X12	Y12	Z12	X13	Y13	Z13	X14	Y14	Z14	X15	Y15	Z15	X16	Y16	Z16	X17	Y17	Z17	X18	Y18	Z18	X19	Y19	Z19	X20	Y20	Z20	X21	Y21	Z21	X22	Y22	Z22	X23	Y23	Z23	X24	Y24	Z24	X25	Y25	Z25	X26	Y26	Z26	X27	Y27	Z27
235	2.34000000	-336.948273	1346.656982	370.159058	-346.857300	1323.028931	-47.713837	-449.728363	1408.597656	160.040756	-296.109985	1292.086304	166.095566	-473.108429	1038.030884	448.223175	-510.284790	1016.448120	-85.107300	-440.261993	788.661652	419.408463	-486.438965	782.161163	-38.805081	-383.415436	913.320862	360.093445	-384.347137	900.863525	16.066357	-561.149963	948.419739	254.003067	-567.198181	945.000244	145.699295	-564.174072	946.709991	199.851181	-545.458435	1162.300293	175.402237	-214.358658	1098.372925	166.021530	-466.401367	602.350342	382.696930	-512.779358	472.460907	330.691467	-622.262634	280.150360	371.113312	-698.627258	81.196434	308.457245	-736.113647	85.423508	248.794357	-569.244141	47.243870	301.940399	-350.532410	584.041626	-26.410973	-274.346527	480.195648	36.575596	-284.214935	283.192291	-6.747252	-270.891846	72.848289	61.187477	-315.820190	56.197227	113.065254	-126.612190	44.839832	80.685417
236	2.35000000	-329.412201	1348.345215	367.140961	-340.748871	1323.621948	-50.380329	-443.086517	1409.704956	157.355713	-289.583221	1293.036865	163.310303	-465.600403	1040.137085	446.750641	-504.134155	1016.883667	-86.449318	-433.780991	790.594513	417.638214	-480.887421	782.395599	-39.893403	-377.336395	914.546936	358.532013	-379.252991	901.564575	13.925696	-555.398132	949.997253	252.507874	-561.181824	946.429871	144.361084	-558.289978	948.213562	198.434479	-539.068054	1163.513062	173.685242	-208.348190	1099.043945	163.722000	-457.883423	602.861328	382.098846	-502.860168	472.308319	331.212952	-615.875244	282.077789	371.507416	-696.477173	84.830788	308.640472	-733.936279	90.085136	249.066650	-568.302185	47.269928	301.743561	-345.607178	585.117432	-28.472250	-270.470062	480.311768	34.795937	-282.838898	283.175903	-7.830110	-270.909790	72.919617	60.751598	-315.913208	56.379749	112.783035	-126.793159	44.986202	80.514595
237	2.36000000	-322.161652	1350.159424	364.165131	-334.700836	1324.364746	-53.017616	-436.584198	1410.888672	154.668930	-283.163239	1294.114258	160.569382	-458.114502	1042.263306	445.282227	-498.136353	1017.513306	-87.886406	-427.161972	792.578247	415.970734	-475.350815	782.840851	-40.908812	-371.456818	915.819519	357.188232	-374.121521	902.239990	11.865781	-549.721069	951.628296	250.848160	-555.170044	947.987793	142.858871	-552.445557	949.808044	196.853516	-532.750916	1164.783447	171.813110	-202.424576	1099.843018	161.465683	-449.367310	603.469727	381.779236	-492.461884	472.136810	331.985535	-609.141113	284.170044	372.048279	-694.005066	88.784225	308.832092	-731.334473	95.158966	249.316864	-567.268982	47.360268	301.597046	-341.982391	585.880127	-30.151356	-267.368042	480.305298	33.044041	-281.904419	283.137207	-8.932765	-270.997040	72.942741	60.285835	-316.042145	56.524696	112.485153	-127.018242	45.145832	80.237762
238	2.37000000	-315.219604	1352.072266	361.256226	-328.719940	1325.217529	-55.613068	-430.230316	1412.121094	151.990326	-276.855988	1295.293823	157.879196	-450.709808	1044.388916	443.799927	-492.264191	1018.284912	-89.426773	-420.421844	794.591888	414.417999	-469.768463	783.469727	-41.877791	-365.767883	917.072449	356.016479	-368.894745	902.925110	9.911156	-544.104492	953.265198	249.066986	-549.175537	949.631470	141.205231	-546.640015	951.448334	195.136108	-526.519470	1166.086426	169.822617	-196.568512	1100.759521	159.245728	-440.787750	604.120728	381.745087	-481.599731	471.944000	332.976440	-602.081604	286.444275	372.712006	-691.166748	93.046356	309.020630	-728.241699	100.627678	249.526382	-566.138306	47.492447	301.483459	-339.594971	586.310974	-31.407967	-264.902679	480.222290	31.353846	-281.232391	283.091034	-10.057280	-271.128937	72.930038	59.808521	-316.190887	56.630390	112.178612	-127.262726	45.295177	79.890060
239	2.38000000	-308.594849	1354.055542	358.439697	-322.814911	1326.142822	-58.152252	-424.027954	1413.376099	149.335281	-270.665802	1296.547729	155.248550	-443.448578	1046.496216	442.290100	-486.491638	1019.149597	-91.070320	-413.584351	796.616974	412.987518	-464.047699	784.269440	-42.847958	-360.262207	918.252441	354.949280	-363.532196	903.661865	8.074553	-538.542419	954.872192	247.213226	-543.224060	951.319092	139.428650	-540.883240	953.095642	193.320938	-520.387146	1167.398560	167.760742	-190.763596	1101.778198	157.065369	-432.064758	604.768066	381.982819	-470.295441	471.743164	334.147980	-594.719910	288.924103	373.472717	-687.909607	97.598663	309.200592	-724.583374	106.459892	249.676804	-564.903564	47.638885	301.394135	-338.293396	586.444458	-32.239658	-262.913422	480.104431	29.759598	-280.665344	283.039886	-11.188708	-271.287659	72.894043	59.337315	-316.346924	56.697384	111.869812	-127.506828	45.421513	79.508453
240	2.39000000	-302.283936	1356.079224	355.740509	-316.993530	1327.107422	-60.620049	-417.975983	1414.628662	146.722382	-264.595947	1297.844849	152.690552	-436.390228	1048.569458	440.745819	-480.795349	1020.067078	-92.811264	-406.679184	798.637299	411.680237	-458.080032	785.238739	-43.879669	-354.932861	919.327576	353.908997	-358.016754	904.491211	6.362337	-533.033325	956.423157	245.331787	-537.348511	953.014832	137.567581	-535.190918	954.718994	191.449684	-514.364136	1168.698853	165.673096	-184.998840	1102.878418	154.937225	-423.111481	605.379822	382.461487	-458.579773	471.558929	335.460754	-587.077454	291.630646	374.305054	-684.176208	102.413490	309.371857	-720.283325	112.610321	249.753250	-563.551941	47.773670	301.322449	-337.853088	586.366943	-32.680782	-261.246216	479.981598	28.293306	-280.104492	282.981689	-12.289470	-271.461609	72.846390	58.887245	-316.501068	56.731270	111.566643	-127.736298	45.519058	79.128189
241	2.40000000	-296.273132	1358.110840	353.180389	-311.259766	1328.082520	-63.002296	-412.070435	1415.858887	144.170380	-258.648651	1299.152954	150.223206	-429.583252	1050.592896	439.169067	-475.156952	1021.008057	-94.637817	-399.740219	800.636780	410.490051	-451.778397	786.372864	-45.026847	-349.768341	920.293091	352.823700	-352.353790	905.445679	4.774302	-527.577820	957.900024	243.458572	-531.579712	954.690552	135.661377	-529.578766	956.295288	189.559975	-508.456757	1169.970703	163.597153	-179.271271	1104.036499	152.880951	-413.841766	605.941711	383.135376	-446.496185	471.421997	336.873413	-579.162598	294.568176	375.185211	-679.908447	107.453812	309.537720	-715.273071	119.024513	249.749283	-562.059509	47.879459	301.251495	-337.994415	586.194885	-32.801167	-259.771118	479.869415	26.979395	-279.519562	282.917877	-13.302058	-271.642029	72.799103	58.468601	-316.646515	56.743095	111.280792	-127.943184	45.586567	78.779617
242	2.41000000	-290.539429	1360.116211	350.771759	-305.614044	1329.044189	-65.287109	-406.304749	1417.052856	141.697144	-252.826126	1300.441528	147.865479	-423.057953	1052.548706	437.570770	-469.566101	1021.950012	-96.532280	-392.802780	802.597534	409.404755	-445.125168	787.645477	-46.312040	-344.742920	921.173828	351.642517	-346.570923	906.539001	3.305370	-522.178284	959.289917	241.618576	-525.939148	956.321716	133.743835	-524.058716	957.805817	187.681206	-502.669159	1171.202637	161.559372	-173.586838	1105.226440	150.918442	-404.180847	606.457458	383.941589	-434.105865	471.365356	338.339142	-570.958801	297.714417	376.087341	-675.052856	112.672501	309.703796	-709.502014	125.642448	249.670105	-560.387817	47.953342	301.154541	-338.410034	586.045166	-32.697540	-258.385834	479.772156	25.831516	-278.930206	282.852142	-14.161160	-271.817963	72.765984	58.087315	-316.778229	56.746803	111.027473	-128.124741	45.625660	78.486130
243	2.42000000	-285.051758	1362.062378	348.514404	-300.055176	1329.973633	-67.465797	-400.671143	1418.202026	139.319214	-247.130493	1301.687256	145.633606	-416.823792	1054.416992	435.968353	-464.020782	1022.873413	-98.474075	-385.899597	804.500519	408.407578	-438.197372	789.002258	-47.714290	-339.807190	922.021545	350.345245	-340.716919	907.757874	1.949011	-516.838135	960.581177	239.826172	-520.435547	957.884888	131.840973	-518.636841	959.233032	185.833572	-497.004333	1172.386475	159.574310	-167.958710	1106.420532	149.068558	-394.080017	606.944763	384.798645	-421.490662	471.421783	339.801422	-562.424927	301.022278	376.979675	-669.566467	118.012672	309.876770	-702.945068	132.398422	249.533203	-558.479858	48.012196	301.009674	-338.799377	586.011475	-32.479721	-257.010193	479.690399	24.853613	-278.369598	282.785217	-14.811650	-271.973389	72.756950	57.752716	-316.892975	56.755550	110.821663	-128.280518	45.639175	78.263298
